<svg xmlns="http://www.w3.org/2000/svg" viewBox="0 0 24 24" fill="none" stroke="rgb(167,139,250)" stroke-width="1.6" stroke-linecap="round" stroke-linejoin="round" role="img" aria-label="Echo Tales">
  <path d="M2 4C2 4 5 3 8 3C10 3 12 4 12 4L12 20C12 20 10 19 8 19C5 19 2 20 2 20L2 4Z"/>
  <path d="M12 4C12 4 14 3 16 3C19 3 22 4 22 4L22 20C22 20 19 19 16 19C14 19 12 20 12 20"/>
  <path d="M7 8L7 12"/>
  <path d="M5 10L9 10"/>
  <path d="M5.6 8.6L8.4 11.4"/>
  <path d="M8.4 8.6L5.6 11.4"/>
  <path d="M4.5 15L9.5 15"/>
  <path d="M14.5 9L20 9"/>
  <path d="M14.5 12L20 12"/>
  <path d="M14.5 15L18.5 15"/>
</svg>
