<svg xmlns="http://www.w3.org/2000/svg" viewBox="0 0 100 100" fill="none">
  <defs>
    <linearGradient id="alchemyGrad" x1="0%" y1="0%" x2="100%" y2="100%">
      <stop offset="0%" style="stop-color:#d97706"/>
      <stop offset="100%" style="stop-color:#ea580c"/>
    </linearGradient>
  </defs>
  <!-- Flask/beaker shape -->
  <path d="M38 15 L38 40 L18 75 C15 82, 20 88, 30 88 L70 88 C80 88, 85 82, 82 75 L62 40 L62 15" fill="url(#alchemyGrad)" opacity="0.9"/>
  <!-- Flask neck -->
  <rect x="36" y="12" width="28" height="6" rx="2" fill="url(#alchemyGrad)" opacity="0.95"/>
  <!-- Liquid line -->
  <path d="M25 70 C35 65, 45 72, 55 68 C65 64, 72 70, 78 68" stroke="white" stroke-width="1.5" fill="none" opacity="0.5"/>
  <!-- Bubbles -->
  <circle cx="40" cy="72" r="4" fill="white" opacity="0.7"/>
  <circle cx="55" cy="76" r="3" fill="white" opacity="0.5"/>
  <circle cx="65" cy="70" r="2.5" fill="white" opacity="0.6"/>
  <circle cx="48" cy="80" r="2" fill="white" opacity="0.4"/>
  <!-- Steam wisps -->
  <path d="M45 12 C43 6, 47 4, 45 0" stroke="white" stroke-width="1.5" fill="none" opacity="0.4"/>
  <path d="M55 12 C53 6, 57 4, 55 0" stroke="white" stroke-width="1.5" fill="none" opacity="0.3"/>
  <!-- Spice/herb accent -->
  <path d="M42 50 L46 42 L50 52 L54 44 L58 50" stroke="white" stroke-width="1.5" fill="none" opacity="0.6" stroke-linecap="round"/>
</svg>
