<svg xmlns="http://www.w3.org/2000/svg" viewBox="0 0 100 100" fill="none">
  <defs>
    <linearGradient id="communityGrad" x1="0%" y1="0%" x2="100%" y2="100%">
      <stop offset="0%" style="stop-color:#f97316"/>
      <stop offset="100%" style="stop-color:#f59e0b"/>
    </linearGradient>
  </defs>
  <circle cx="50" cy="50" r="38" fill="url(#communityGrad)" opacity="0.95"/>
  <!-- Three-person silhouette -->
  <!-- Left -->
  <circle cx="30" cy="42" r="7" fill="white" opacity="0.75"/>
  <path d="M18 66 C18 58, 23 54, 30 54 C37 54, 42 58, 42 66 L42 72 L18 72 Z" fill="white" opacity="0.75"/>
  <!-- Right -->
  <circle cx="70" cy="42" r="7" fill="white" opacity="0.75"/>
  <path d="M58 66 C58 58, 63 54, 70 54 C77 54, 82 58, 82 66 L82 72 L58 72 Z" fill="white" opacity="0.75"/>
  <!-- Center (slightly forward) -->
  <circle cx="50" cy="38" r="8.5" fill="white" opacity="0.98"/>
  <path d="M34 74 C34 64, 40 58, 50 58 C60 58, 66 64, 66 74 L66 78 L34 78 Z" fill="white" opacity="0.98"/>
</svg>
