<svg xmlns="http://www.w3.org/2000/svg" viewBox="0 0 100 100" fill="none">
  <defs>
    <linearGradient id="sophiaGrad" x1="0%" y1="0%" x2="100%" y2="100%">
      <stop offset="0%" style="stop-color:#f59e0b"/>
      <stop offset="100%" style="stop-color:#ea580c"/>
    </linearGradient>
  </defs>
  <!-- Owl/wisdom silhouette - philosophy -->
  <circle cx="50" cy="45" r="32" fill="url(#sophiaGrad)" opacity="0.9"/>
  <!-- Eyes of wisdom -->
  <circle cx="40" cy="40" r="10" fill="white" opacity="0.9"/>
  <circle cx="60" cy="40" r="10" fill="white" opacity="0.9"/>
  <circle cx="40" cy="40" r="5" fill="#f59e0b"/>
  <circle cx="60" cy="40" r="5" fill="#f59e0b"/>
  <circle cx="40" cy="40" r="2" fill="#1a1a2e"/>
  <circle cx="60" cy="40" r="2" fill="#1a1a2e"/>
  <!-- Beak -->
  <path d="M46 50 L50 56 L54 50" fill="white" opacity="0.8"/>
  <!-- Book/scroll base -->
  <path d="M25 68 C25 62, 35 58, 50 58 C65 58, 75 62, 75 68 L75 80 C75 84, 65 88, 50 88 C35 88, 25 84, 25 80 Z" fill="url(#sophiaGrad)" opacity="0.7"/>
  <path d="M50 58 L50 88" stroke="white" stroke-width="1.5" opacity="0.4"/>
  <!-- Greek column hints -->
  <line x1="32" y1="64" x2="32" y2="82" stroke="white" stroke-width="2" opacity="0.3"/>
  <line x1="68" y1="64" x2="68" y2="82" stroke="white" stroke-width="2" opacity="0.3"/>
</svg>
